<svg xmlns="http://www.w3.org/2000/svg" aria-hidden="true" style="position:absolute;width:0;height:0;overflow:hidden">
    <defs>
        <symbol id="search" viewBox="0 0 20 20" fill="none" xmlns="http://www.w3.org/2000/svg">
            <path d="M9.16667 15.8333C12.8486 15.8333 15.8333 12.8486 15.8333 9.16667C15.8333 5.48477 12.8486 2.5 9.16667 2.5C5.48477 2.5 2.5 5.48477 2.5 9.16667C2.5 12.8486 5.48477 15.8333 9.16667 15.8333Z" stroke="#121417" stroke-width="1.5" stroke-linecap="round" stroke-linejoin="round"/>
            <path d="M17.5 17.5L13.875 13.875" stroke="#121417" stroke-width="1.5" stroke-linecap="round" stroke-linejoin="round"/>
        </symbol>
        <symbol id="select-up" viewBox="0 0 16 16">
            <path
        fill-rule="evenodd"
        clip-rule="evenodd"
        d="M7.14663 4.14689C7.19308 4.10033 7.24825 4.06339 7.309 4.03818C7.36974 4.01297 7.43486 4 7.50063 4C7.5664 4 7.63152 4.01297 7.69226 4.03818C7.75301 4.06339 7.80819 4.10033 7.85463 4.14689L13.8546 10.1469C13.9485 10.2408 14.0013 10.3681 14.0013 10.5009C14.0013 10.6337 13.9485 10.761 13.8546 10.8549C13.7607 10.9488 13.6334 11.0015 13.5006 11.0015C13.3679 11.0015 13.2405 10.9488 13.1466 10.8549L7.50063 5.20789L1.85463 10.8549C1.76075 10.9488 1.63341 11.0015 1.50063 11.0015C1.36786 11.0015 1.24052 10.9488 1.14663 10.8549C1.05274 10.761 1 10.6337 1 10.5009C1 10.3681 1.05274 10.2408 1.14663 10.1469L7.14663 4.14689Z"
      />
        </symbol>
    </defs>
</svg>