<svg width="100%" height="100%" id="svg" viewBox="0 0 1440 590" xmlns="http://www.w3.org/2000/svg" class="transition duration-300 ease-in-out delay-150"><path d="M 0,600 L 0,150 C 98.54545454545456,148.42105263157896 197.09090909090912,146.8421052631579 296,171 C 394.9090909090909,195.1578947368421 494.18181818181813,245.0526315789474 595,221 C 695.8181818181819,196.9473684210526 798.1818181818182,98.94736842105263 892,76 C 985.8181818181818,53.05263157894737 1071.090909090909,105.15789473684211 1161,130 C 1250.909090909091,154.8421052631579 1345.4545454545455,152.42105263157896 1440,150 L 1440,600 L 0,600 Z" stroke="none" stroke-width="0" class="transition-all duration-300 ease-in-out delay-150 path-0"></path><path d="M 0,600 L 0,350 C 117.95215311004785,308.2200956937799 235.9043062200957,266.4401913875598 319,295 C 402.0956937799043,323.5598086124402 450.33492822966514,422.4593301435406 525,419 C 599.6650717703349,415.5406698564594 700.7559808612441,309.7224880382775 812,293 C 923.2440191387559,276.2775119617225 1044.641148325359,348.6507177033493 1151,373 C 1257.358851674641,397.3492822966507 1348.6794258373207,373.67464114832535 1440,350 L 1440,600 L 0,600 Z" stroke="none" stroke-width="0" class="transition-all duration-300 ease-in-out delay-150 path-1"></path></svg>
